<svg id="visual" viewBox="0 0 900 600" width="900" height="600" xmlns="http://www.w3.org/2000/svg" xmlns:xlink="http://www.w3.org/1999/xlink" version="1.1"><rect x="0" y="0" width="900" height="600" fill="#f1e2e2"></rect><path d="M0 429L129 427L257 373L386 422L514 370L643 383L771 354L900 387L900 601L771 601L643 601L514 601L386 601L257 601L129 601L0 601Z" fill="#b7cdc9"></path><path d="M0 450L129 449L257 446L386 453L514 396L643 460L771 406L900 405L900 601L771 601L643 601L514 601L386 601L257 601L129 601L0 601Z" fill="#95c7ca"></path><path d="M0 506L129 444L257 464L386 445L514 438L643 490L771 443L900 448L900 601L771 601L643 601L514 601L386 601L257 601L129 601L0 601Z" fill="#71c0d4"></path><path d="M0 501L129 492L257 526L386 510L514 497L643 520L771 537L900 513L900 601L771 601L643 601L514 601L386 601L257 601L129 601L0 601Z" fill="#51b6e2"></path><path d="M0 565L129 565L257 539L386 546L514 565L643 526L771 540L900 538L900 601L771 601L643 601L514 601L386 601L257 601L129 601L0 601Z" fill="#49a9ef"></path></svg>